<?xml version="1.0" encoding="utf-8"?>
<!-- Generator: Adobe Illustrator 21.0.0, SVG Export Plug-In . SVG Version: 6.00 Build 0)  -->
<svg version="1.1" id="Calque_1" xmlns="http://www.w3.org/2000/svg" xmlns:xlink="http://www.w3.org/1999/xlink" x="0px" y="0px"
	 viewBox="0 0 506.2 573.2" style="enable-background:new 0 0 506.2 573.2;" xml:space="preserve">
<style type="text/css">
	.st0{fill:#FFCB4D;}
	.st1{fill:#92290D;}
	.st2{fill:#233061;}
	.st3{fill:#FFFFFF;}
	.st4{fill:none;stroke:#000000;stroke-width:5.2996;stroke-miterlimit:10;}
	.st5{fill:none;stroke:#000000;stroke-width:4.2397;stroke-miterlimit:10;}
	.st6{fill:none;stroke:#000000;stroke-width:2.1198;stroke-miterlimit:10;}
</style>
<polygon class="st0" points="351.5,253.2 351.5,47 374.9,13.3 496.7,122.5 496.7,323.7 358.8,306.8 343.7,269.8 "/>
<g>
	<path class="st1" d="M75.2,549.7c5,0,9.7-1.3,14-3.9c4.3-2.6,8.4-6.3,12.3-10.9c3.9-4.6,7.5-10.1,11-16.5
		c3.5-6.4,6.7-13.2,9.8-20.6c-7.5-24.6-15-46.7-22.7-66.1c-7.7-19.5-15.1-36-22.4-49.5c-3.8-7.2-7.7-12.7-11.7-16.4
		c-4.1-3.7-7.9-5.5-11.5-5.5c-2.2,0-4.1,0.5-5.8,1.4c-1.7,0.9-3.2,1.9-4.4,3l-2.6-3.2c1.4-1.4,3.2-2.9,5.3-4.4
		c2.1-1.5,4.6-2.9,7.4-4.2c2.8-1.3,6-2.4,9.5-3.2c3.5-0.8,7.4-1.2,11.6-1.2c2.1,0,4.5,0.2,7.1,0.6c2.6,0.4,5.2,1.1,7.9,2.3
		c2.7,1.1,5.4,2.7,8,4.7c2.7,2,5.2,4.7,7.6,8c5.3,7.4,10.8,17.8,16.7,31.2c5.9,13.4,12.1,29.8,18.8,49c2.1-6.4,4.2-12.7,6.3-19
		c2.1-6.3,4.1-12.5,6.3-18.5c2.1-6,4.3-11.7,6.4-17.3s4.4-10.7,6.7-15.6c2.4-5.1,4.8-9.7,7.3-13.6c2.5-3.9,5.2-7.2,8.2-9.9
		s6.3-4.7,10-6.1c3.7-1.4,7.9-2.1,12.7-2.1c3.6,0,6.5,0.8,8.7,2.3c2.3,1.5,3.4,3.8,3.4,6.9c0,2.7-0.4,5-1.3,6.8
		c-0.9,1.8-2.1,2.7-3.7,2.7c-1.3,0-2.3-0.5-3-1.5c-0.7-1-1.4-2.1-2.2-3.2c-0.7-1.2-1.6-2.2-2.6-3.2c-1-1-2.4-1.5-4.3-1.5
		c-4.2,0-8,1.9-11.5,5.7c-3.5,3.8-6.8,9-9.9,15.6c-3.1,6.6-6.1,14.2-9,23c-2.9,8.8-5.8,18.1-8.8,27.9c-2.9,9.8-6,20-9.2,30.4
		c-3.2,10.4-6.7,20.6-10.4,30.4s-7.7,19.2-12.2,27.9c-4.4,8.8-9.3,16.5-14.7,23c-5.4,6.6-11.4,11.8-17.9,15.6
		c-6.6,3.8-13.8,5.7-21.8,5.7c-3.5,0-6.9-0.3-10.1-0.9c-3.2-0.6-6.2-1.4-8.7-2.4s-4.7-2.3-6.4-3.7c-1.7-1.4-2.6-3-2.8-4.6
		c-0.1-1.2-0.1-2.5,0.2-3.7c0.2-1.3,0.6-2.4,1.2-3.4c0.5-1,1.3-1.9,2.2-2.6c0.9-0.7,2-1,3.2-1c0.8,0,1.5,0.4,2.1,1.1
		c0.7,0.8,1.4,1.7,2.1,2.8c0.8,1.1,1.6,2.3,2.5,3.6c0.9,1.3,2.1,2.5,3.4,3.6c1.4,1.1,3,2.1,4.9,2.8
		C70.2,549.3,72.5,549.7,75.2,549.7z"/>
	<path class="st1" d="M215.7,403.8c-2.3,0-4.5,0.3-6.5,0.8c-2,0.5-3.7,1.2-5.1,2.1s-2.6,1.7-3.4,2.7c-0.8,1-1.2,1.9-1.2,2.8
		c0,1,0.5,1.8,1.6,2.2c1.1,0.4,2.2,1,3.5,1.5c1.3,0.6,2.5,1.4,3.5,2.5c1.1,1.1,1.6,2.7,1.6,4.9c0,1.4-0.3,2.8-0.9,3.9
		c-0.6,1.2-1.4,2.3-2.4,3.2c-1,0.9-2.2,1.6-3.5,2.2c-1.3,0.5-2.7,0.8-4.2,0.8c-3.8,0-6.9-1.3-9.3-3.9c-2.4-2.6-3.5-6-3.5-10.4
		c0-4.2,1.1-7.7,3.3-10.7c2.2-3,5-5.4,8.6-7.3c3.5-1.9,7.5-3.3,11.9-4.3c4.4-0.9,8.9-1.4,13.3-1.4c5.3,0,10.4,0.6,15.3,1.7
		c4.9,1.2,9.1,3,12.9,5.5c3.7,2.5,6.7,5.7,8.9,9.6c2.2,3.9,3.3,8.6,3.3,14.2v57.9c0,0.6,0,1.3,0.1,2.1c0.1,0.8,0.2,1.4,0.5,2.1
		c0.3,0.6,0.7,1.1,1.2,1.5c0.5,0.4,1.3,0.6,2.4,0.6c1.2,0,2.4-0.5,3.4-1.4c1.1-0.9,2-1.9,2.8-2.8l2.6,2.2c-1,1.4-2.3,3-3.7,4.7
		c-1.4,1.7-3.2,3.3-5.2,4.8c-2.1,1.5-4.4,2.8-7.2,3.8c-2.7,1-5.8,1.5-9.3,1.5c-4.3,0-8.1-1.3-11.5-3.8c-3.4-2.6-5.5-6.5-6.6-11.8
		c-2.2,2.9-4.5,5.4-6.8,7.4c-2.4,2-4.8,3.6-7.2,4.8s-4.9,2.1-7.4,2.7c-2.5,0.5-5,0.8-7.5,0.8c-3.3,0-6.5-0.5-9.5-1.5
		s-5.8-2.6-8.3-4.9c-2.4-2.2-4.4-5.1-5.8-8.7c-1.5-3.6-2.2-7.9-2.2-13c0-6.2,1.2-11.3,3.7-15.3c2.5-4,5.7-7.3,9.7-10
		c4-2.7,8.5-5,13.6-6.9c5.1-1.9,10.3-3.9,15.6-6c4-1.6,6.9-3.9,8.7-7c1.8-3.1,2.7-6.3,2.7-9.6c0-5.1-1.5-9.1-4.5-12.2
		C224.9,405.3,220.9,403.8,215.7,403.8z M232.1,448.7c0-1.7-0.5-3-1.6-3.9c-1.1-0.9-2.5-1.3-4.2-1.3c-2.4,0-4.7,0.5-6.8,1.6
		c-2.2,1.1-4.1,2.7-5.7,4.8c-1.6,2.1-2.9,4.7-3.9,7.8c-1,3.1-1.4,6.7-1.4,10.8c0,4,0.3,7.2,0.9,9.8c0.6,2.6,1.4,4.7,2.4,6.2
		c1,1.5,2.1,2.6,3.4,3.2c1.3,0.6,2.7,0.9,4.1,0.9c1.8,0,3.5-0.5,5-1.4c1.6-0.9,2.9-2.1,4.1-3.5c1.2-1.4,2.1-3,2.8-4.8
		c0.7-1.8,1-3.6,1-5.3V448.7z"/>
	<path class="st1" d="M322.2,492.8c0,0.9-0.2,1.9-0.5,3.2c-0.3,1.2-1,2.4-2.2,3.5c-1.1,1.1-2.8,2-4.9,2.8c-2.2,0.8-5,1.2-8.7,1.2
		s-6.5-0.4-8.5-1.3c-2.1-0.9-3.6-1.9-4.6-3c-1-1.2-1.6-2.4-1.8-3.6c-0.2-1.2-0.4-2.2-0.4-3V360.3c0-2-0.5-3.7-1.4-5.2
		c-0.9-1.5-2.5-2.2-4.7-2.2c-1.2,0-2.2,0.2-3,0.6c-0.9,0.4-1.8,0.9-2.7,1.7l-2.1-2.5c1.6-1.3,3.3-2.6,5.2-3.8c1.9-1.3,4-2.4,6.3-3.3
		c2.3-1,4.7-1.7,7.3-2.4c2.6-0.6,5.3-0.9,8.2-0.9c4.4,0,7.9,0.6,10.4,1.8c2.5,1.2,4.3,2.7,5.4,4.4c1.2,1.7,1.9,3.6,2.1,5.5
		c0.2,1.9,0.4,3.7,0.4,5.2V492.8z"/>
	<path class="st1" d="M379.7,492.8c0,0.9-0.2,1.9-0.5,3.2c-0.3,1.2-1,2.4-2.2,3.5c-1.1,1.1-2.8,2-4.9,2.8c-2.2,0.8-5,1.2-8.7,1.2
		c-3.6,0-6.5-0.4-8.5-1.3c-2.1-0.9-3.6-1.9-4.6-3c-1-1.2-1.6-2.4-1.8-3.6c-0.2-1.2-0.4-2.2-0.4-3V360.3c0-2-0.5-3.7-1.4-5.2
		c-0.9-1.5-2.5-2.2-4.7-2.2c-1.2,0-2.2,0.2-3,0.6c-0.9,0.4-1.8,0.9-2.7,1.7l-2.1-2.5c1.6-1.3,3.3-2.6,5.2-3.8c1.9-1.3,4-2.4,6.3-3.3
		c2.3-1,4.7-1.7,7.3-2.4c2.6-0.6,5.3-0.9,8.2-0.9c4.4,0,7.9,0.6,10.4,1.8c2.5,1.2,4.3,2.7,5.4,4.4c1.2,1.7,1.9,3.6,2.1,5.5
		c0.2,1.9,0.4,3.7,0.4,5.2V492.8z"/>
	<path class="st1" d="M435.4,403.8c-2.3,0-4.5,0.3-6.5,0.8c-2,0.5-3.7,1.2-5.1,2.1s-2.6,1.7-3.4,2.7c-0.8,1-1.2,1.9-1.2,2.8
		c0,1,0.5,1.8,1.6,2.2c1.1,0.4,2.2,1,3.5,1.5c1.3,0.6,2.5,1.4,3.5,2.5c1.1,1.1,1.6,2.7,1.6,4.9c0,1.4-0.3,2.8-0.9,3.9
		c-0.6,1.2-1.4,2.3-2.4,3.2c-1,0.9-2.2,1.6-3.5,2.2c-1.3,0.5-2.7,0.8-4.2,0.8c-3.8,0-6.9-1.3-9.3-3.9c-2.4-2.6-3.5-6-3.5-10.4
		c0-4.2,1.1-7.7,3.3-10.7c2.2-3,5-5.4,8.6-7.3c3.5-1.9,7.5-3.3,11.9-4.3c4.4-0.9,8.9-1.4,13.3-1.4c5.3,0,10.4,0.6,15.3,1.7
		c4.9,1.2,9.1,3,12.9,5.5c3.7,2.5,6.7,5.7,8.9,9.6c2.2,3.9,3.3,8.6,3.3,14.2v57.9c0,0.6,0,1.3,0.1,2.1c0.1,0.8,0.2,1.4,0.5,2.1
		c0.3,0.6,0.7,1.1,1.2,1.5c0.5,0.4,1.3,0.6,2.4,0.6c1.2,0,2.4-0.5,3.4-1.4c1.1-0.9,2-1.9,2.8-2.8l2.6,2.2c-1,1.4-2.3,3-3.7,4.7
		c-1.4,1.7-3.2,3.3-5.2,4.8c-2.1,1.5-4.4,2.8-7.2,3.8c-2.7,1-5.8,1.5-9.3,1.5c-4.3,0-8.1-1.3-11.5-3.8c-3.4-2.6-5.5-6.5-6.6-11.8
		c-2.2,2.9-4.5,5.4-6.8,7.4c-2.4,2-4.8,3.6-7.2,4.8s-4.9,2.1-7.4,2.7c-2.5,0.5-5,0.8-7.5,0.8c-3.3,0-6.5-0.5-9.5-1.5
		s-5.8-2.6-8.3-4.9c-2.4-2.2-4.4-5.1-5.8-8.7c-1.5-3.6-2.2-7.9-2.2-13c0-6.2,1.2-11.3,3.7-15.3c2.5-4,5.7-7.3,9.7-10
		c4-2.7,8.5-5,13.6-6.9c5.1-1.9,10.3-3.9,15.6-6c4-1.6,6.9-3.9,8.7-7c1.8-3.1,2.7-6.3,2.7-9.6c0-5.1-1.5-9.1-4.5-12.2
		C444.6,405.3,440.5,403.8,435.4,403.8z M451.7,448.7c0-1.7-0.5-3-1.6-3.9c-1.1-0.9-2.5-1.3-4.2-1.3c-2.4,0-4.7,0.5-6.8,1.6
		c-2.2,1.1-4.1,2.7-5.7,4.8c-1.6,2.1-2.9,4.7-3.9,7.8c-1,3.1-1.4,6.7-1.4,10.8c0,4,0.3,7.2,0.9,9.8c0.6,2.6,1.4,4.7,2.4,6.2
		c1,1.5,2.1,2.6,3.4,3.2c1.3,0.6,2.7,0.9,4.1,0.9c1.8,0,3.5-0.5,5-1.4c1.6-0.9,2.9-2.1,4.1-3.5c1.2-1.4,2.1-3,2.8-4.8
		c0.7-1.8,1-3.6,1-5.3V448.7z"/>
	<path d="M133.2,528.3c0-0.5-0.1-1-0.4-1.4c-0.2-0.4-0.7-0.6-1.2-0.6c-0.3,0-0.6,0.1-0.8,0.2s-0.5,0.3-0.7,0.5l-0.6-0.7
		c0.4-0.3,0.9-0.7,1.4-1c0.5-0.3,1.1-0.6,1.7-0.9c0.6-0.3,1.2-0.5,1.9-0.6c0.7-0.2,1.4-0.2,2.2-0.2c0.8,0,1.5,0.1,2.1,0.4
		c0.6,0.3,1.1,0.6,1.5,0.9c0.4,0.4,0.7,0.7,0.9,1.1c0.2,0.4,0.3,0.7,0.4,1c0.4-0.5,0.8-1,1.3-1.4c0.5-0.4,1-0.8,1.6-1.1
		c0.6-0.3,1.2-0.5,1.9-0.7c0.7-0.2,1.4-0.2,2.1-0.2c1.5,0,2.8,0.3,4,0.9c1.2,0.6,2.2,1.5,3,2.7c0.8,1.2,1.5,2.7,2,4.4
		c0.5,1.8,0.7,3.8,0.7,6.1c0,2.7-0.3,4.9-0.8,6.8c-0.6,1.9-1.3,3.4-2.2,4.6c-0.9,1.2-1.9,2-3.1,2.6c-1.2,0.5-2.3,0.8-3.5,0.8
		c-1,0-1.9-0.1-2.6-0.3c-0.8-0.2-1.4-0.4-2-0.7c-0.5-0.3-1-0.6-1.4-0.9c-0.4-0.3-0.7-0.6-0.9-0.8v13.3c0,0.2,0,0.5-0.1,0.8
		c-0.1,0.3-0.3,0.6-0.5,0.9c-0.3,0.3-0.7,0.6-1.3,0.8c-0.6,0.2-1.3,0.3-2.3,0.3c-1,0-1.7-0.1-2.3-0.3c-0.6-0.2-1-0.5-1.3-0.8
		c-0.3-0.3-0.5-0.6-0.5-1c-0.1-0.3-0.1-0.6-0.1-0.8V528.3z M141.6,545.7c0,0.1,0.1,0.4,0.2,0.8c0.1,0.4,0.3,0.7,0.6,1.1
		s0.6,0.7,1.1,1c0.4,0.3,1,0.5,1.6,0.5c0.8,0,1.5-0.3,2.1-0.9c0.6-0.6,1-1.4,1.4-2.5c0.4-1,0.6-2.3,0.8-3.7s0.2-2.9,0.2-4.5
		c0-2-0.1-3.6-0.3-4.9c-0.2-1.3-0.5-2.4-0.9-3.3c-0.4-0.8-0.9-1.4-1.4-1.8c-0.6-0.4-1.2-0.6-1.9-0.6c-0.4,0-0.8,0.1-1.2,0.3
		c-0.4,0.2-0.8,0.5-1.1,0.8c-0.3,0.3-0.6,0.7-0.8,1.1c-0.2,0.4-0.3,0.8-0.3,1.2V545.7z"/>
	<path d="M161.6,537.8c0-2.4,0.3-4.5,1-6.3c0.7-1.8,1.6-3.3,2.8-4.5c1.2-1.2,2.5-2.1,4-2.7s3.1-0.9,4.8-0.9c1.7,0,3.3,0.3,4.8,0.8
		c1.5,0.6,2.9,1.4,4,2.6c1.2,1.1,2.1,2.6,2.8,4.4c0.7,1.8,1,3.8,1,6.2c0,2.4-0.3,4.5-1,6.3c-0.7,1.8-1.6,3.4-2.8,4.6
		c-1.2,1.3-2.5,2.2-4,2.9s-3.1,1-4.8,1c-1.7,0-3.3-0.3-4.8-0.9s-2.9-1.5-4-2.7c-1.2-1.2-2.1-2.7-2.8-4.5
		C161.9,542.3,161.6,540.2,161.6,537.8z M178.4,537.6c0-1.5-0.1-2.9-0.2-4.2c-0.1-1.4-0.3-2.6-0.6-3.6c-0.3-1.1-0.7-1.9-1.3-2.5
		s-1.3-0.9-2.2-0.9c-0.9,0-1.6,0.3-2.2,1c-0.5,0.7-1,1.5-1.3,2.6c-0.3,1.1-0.5,2.3-0.6,3.7c-0.1,1.4-0.1,2.8-0.1,4.3
		c0,1.5,0,2.9,0.1,4.3c0.1,1.4,0.3,2.6,0.6,3.7c0.3,1.1,0.7,2,1.3,2.6c0.5,0.7,1.3,1,2.2,1c0.9,0,1.6-0.3,2.2-1
		c0.5-0.7,1-1.6,1.3-2.7c0.3-1.1,0.5-2.4,0.6-3.8C178.3,540.5,178.4,539,178.4,537.6z"/>
	<path d="M215.9,547.1c0,0.2,0,0.3,0,0.5c0,0.2,0.1,0.4,0.1,0.5c0.1,0.2,0.2,0.3,0.3,0.4c0.1,0.1,0.4,0.2,0.6,0.2
		c0.3,0,0.7-0.1,0.9-0.4s0.5-0.5,0.8-0.8l0.7,0.6c-0.3,0.4-0.6,0.8-1,1.3s-0.9,0.9-1.5,1.3c-0.6,0.4-1.2,0.8-2,1.1
		c-0.7,0.3-1.6,0.4-2.5,0.4c-0.8,0-1.5-0.1-2.1-0.3c-0.6-0.2-1.1-0.5-1.5-0.8s-0.7-0.8-0.9-1.3c-0.2-0.5-0.3-1-0.3-1.5v-1.2
		c-0.9,1-1.9,1.9-2.9,2.6c-0.4,0.3-0.9,0.6-1.4,1c-0.5,0.3-1,0.6-1.5,0.8c-0.5,0.2-1.1,0.4-1.6,0.6c-0.6,0.1-1.1,0.2-1.7,0.2
		c-1.1,0-2-0.2-2.8-0.6c-0.8-0.4-1.4-0.9-1.9-1.5c-0.5-0.6-0.8-1.4-1-2.2c-0.2-0.8-0.3-1.6-0.3-2.4v-16.9c0-0.2,0-0.3,0-0.5
		c0-0.2-0.1-0.4-0.1-0.5c-0.1-0.2-0.2-0.3-0.3-0.4c-0.1-0.1-0.4-0.2-0.6-0.2c-0.3,0-0.6,0.1-0.9,0.4c-0.3,0.2-0.5,0.5-0.8,0.8
		l-0.7-0.6c0.3-0.4,0.6-0.8,1-1.3s0.9-0.9,1.5-1.3c0.6-0.4,1.3-0.8,2-1.1c0.8-0.3,1.6-0.4,2.5-0.4c0.8,0,1.5,0.1,2.1,0.3
		c0.6,0.2,1.1,0.5,1.5,0.8c0.4,0.4,0.7,0.8,0.9,1.3c0.2,0.5,0.3,1,0.3,1.5v18.3c0,0.3,0,0.5,0.1,0.8c0.1,0.3,0.2,0.5,0.4,0.7
		c0.2,0.2,0.4,0.4,0.6,0.5c0.2,0.1,0.5,0.2,0.8,0.2c0.5,0,1.1-0.1,1.6-0.4c0.5-0.3,1-0.6,1.4-1c0.4-0.4,0.8-0.7,1.1-1.1
		c0.3-0.4,0.6-0.6,0.7-0.8v-16c0-0.2,0-0.3,0-0.5c0-0.2-0.1-0.4-0.1-0.5c-0.1-0.2-0.2-0.3-0.3-0.4c-0.1-0.1-0.4-0.2-0.6-0.2
		c-0.3,0-0.6,0.1-0.9,0.4c-0.3,0.2-0.5,0.5-0.8,0.8l-0.7-0.6c0.3-0.4,0.6-0.8,1-1.3s0.9-0.9,1.5-1.3c0.6-0.4,1.3-0.8,2-1.1
		c0.8-0.3,1.6-0.4,2.5-0.4c0.8,0,1.5,0.1,2.1,0.3c0.6,0.2,1.1,0.5,1.5,0.8c0.4,0.4,0.7,0.8,0.9,1.3c0.2,0.5,0.3,1,0.3,1.5V547.1z"/>
	<path d="M231.8,529.2c0.7-1.1,1.4-2,2.2-2.9c0.3-0.4,0.7-0.7,1.1-1.1c0.4-0.3,0.8-0.7,1.2-0.9s0.8-0.5,1.3-0.7s0.9-0.2,1.3-0.2
		c0.9,0,1.7,0.3,2.2,0.8c0.5,0.6,0.8,1.3,0.8,2.3c0,0.6-0.1,1.2-0.2,1.8c-0.1,0.6-0.3,1.3-0.6,2.1h-0.8c-0.1-0.6-0.4-1-0.8-1.4
		c-0.4-0.4-1-0.6-1.8-0.6c-0.6,0-1.1,0.1-1.7,0.3c-0.5,0.2-1.1,0.5-1.6,0.8c-0.5,0.3-1,0.6-1.5,1c-0.5,0.4-0.9,0.7-1.3,1v17.7
		c0,0.2,0,0.5-0.1,0.8c-0.1,0.3-0.3,0.6-0.5,0.9c-0.3,0.3-0.7,0.5-1.3,0.8c-0.6,0.2-1.3,0.3-2.3,0.3c-1,0-1.7-0.1-2.3-0.3
		c-0.6-0.2-1-0.5-1.3-0.8c-0.3-0.3-0.5-0.6-0.5-1c-0.1-0.3-0.1-0.6-0.1-0.8v-21.1c0-0.5-0.1-1-0.4-1.4c-0.2-0.4-0.7-0.6-1.2-0.6
		c-0.3,0-0.6,0.1-0.8,0.2s-0.5,0.3-0.7,0.5l-0.6-0.7c0.4-0.3,0.9-0.7,1.4-1c0.5-0.3,1.1-0.6,1.7-0.9c0.6-0.3,1.2-0.5,1.9-0.6
		c0.7-0.2,1.4-0.2,2.2-0.2c0.8,0,1.5,0.1,2,0.3c0.6,0.2,1,0.5,1.4,0.8c0.4,0.3,0.6,0.7,0.8,1.1c0.2,0.4,0.4,0.8,0.5,1.3
		c0.1,0.4,0.2,0.8,0.2,1.2C231.8,528.6,231.8,528.9,231.8,529.2z"/>
	<path d="M266.4,549.4c0,0.2,0,0.5-0.1,0.8s-0.3,0.6-0.6,0.9c-0.3,0.3-0.7,0.5-1.3,0.8s-1.3,0.3-2.3,0.3c-1,0-1.7-0.1-2.3-0.3
		s-1-0.5-1.2-0.8c-0.3-0.3-0.4-0.6-0.5-1c-0.1-0.3-0.1-0.6-0.1-0.8v-35.3c0-0.5-0.1-1-0.4-1.4c-0.2-0.4-0.7-0.6-1.2-0.6
		c-0.3,0-0.6,0.1-0.8,0.2c-0.2,0.1-0.5,0.3-0.7,0.5l-0.5-0.7c0.4-0.3,0.9-0.7,1.4-1c0.5-0.3,1.1-0.6,1.7-0.9c0.6-0.3,1.3-0.5,2-0.6
		c0.7-0.2,1.4-0.2,2.2-0.2c1.2,0,2.1,0.2,2.8,0.5c0.7,0.3,1.1,0.7,1.4,1.2c0.3,0.5,0.5,1,0.6,1.5c0.1,0.5,0.1,1,0.1,1.4V549.4z"/>
	<path d="M280.3,539.3c0,0.6,0.1,1.2,0.3,1.9c0.2,0.7,0.4,1.4,0.8,2.1c0.3,0.7,0.7,1.4,1.2,2c0.5,0.6,1,1.2,1.7,1.7s1.3,0.9,2.1,1.2
		c0.8,0.3,1.6,0.4,2.5,0.4c0.6,0,1.2-0.1,1.8-0.2c0.5-0.1,1.1-0.3,1.5-0.6c0.5-0.3,0.9-0.6,1.4-0.9c0.4-0.3,0.9-0.7,1.3-1.1l0.7,0.7
		c-0.4,0.6-1,1.2-1.6,1.9c-0.7,0.7-1.4,1.3-2.4,1.9c-0.9,0.6-2,1.1-3.3,1.5c-1.2,0.4-2.7,0.6-4.2,0.6s-3.1-0.3-4.6-0.9
		s-2.8-1.4-4-2.6c-1.2-1.1-2.1-2.6-2.8-4.3c-0.7-1.7-1.1-3.7-1.1-6c0-1.7,0.2-3.2,0.6-4.6c0.4-1.4,1-2.6,1.7-3.7
		c0.7-1.1,1.6-2.1,2.5-2.9c1-0.8,2-1.5,3-2.1c1.1-0.6,2.1-1,3.2-1.3c1.1-0.3,2.2-0.4,3.2-0.4c1.3,0,2.5,0.1,3.5,0.4
		c1,0.3,1.8,0.7,2.5,1.2c0.7,0.5,1.2,1.1,1.5,1.7c0.3,0.6,0.5,1.3,0.5,2c0,0.9-0.2,1.6-0.7,2.3s-1.1,1.3-2,1.8L280.3,539.3z
		 M285.8,533.7c0.2-0.1,0.4-0.3,0.6-0.4c0.2-0.1,0.3-0.3,0.4-0.5c0.1-0.2,0.2-0.4,0.2-0.7c0-0.3,0.1-0.6,0.1-1.1
		c0-0.5-0.1-1-0.2-1.5c-0.1-0.6-0.3-1.1-0.5-1.6c-0.2-0.5-0.5-0.9-0.9-1.2c-0.4-0.3-0.8-0.5-1.3-0.5c-0.7,0-1.2,0.2-1.7,0.6
		c-0.5,0.4-0.8,0.9-1.1,1.5c-0.3,0.6-0.5,1.3-0.7,2.1c-0.2,0.8-0.3,1.6-0.4,2.4c-0.1,0.8-0.1,1.6-0.2,2.3c0,0.7,0,1.4,0,1.9
		L285.8,533.7z"/>
	<path d="M308,525.6c-0.4,0-0.8,0.1-1.2,0.2c-0.4,0.1-0.7,0.3-1,0.5c-0.3,0.2-0.5,0.6-0.7,0.9c-0.2,0.4-0.2,0.8-0.2,1.3
		c0,0.7,0.3,1.4,0.8,2.1c0.5,0.7,1.2,1.4,1.9,2.2c0.8,0.8,1.6,1.5,2.5,2.4c0.9,0.8,1.7,1.7,2.5,2.6c0.8,0.9,1.4,1.9,1.9,2.9
		c0.5,1,0.8,2.1,0.8,3.3c0,1.3-0.2,2.5-0.7,3.5c-0.4,1-1.1,1.9-1.9,2.6c-0.8,0.7-1.8,1.3-3,1.6s-2.5,0.6-3.9,0.6
		c-1.3,0-2.4-0.2-3.4-0.5c-1-0.4-1.9-0.8-2.7-1.3s-1.5-1.1-2-1.7c-0.6-0.6-1-1.1-1.3-1.6l1-0.7c0.2,0.3,0.5,0.6,0.9,0.9
		c0.4,0.3,0.8,0.6,1.2,0.9c0.4,0.3,0.9,0.5,1.4,0.7c0.5,0.2,1,0.3,1.6,0.3c1.3,0,2.4-0.3,3.2-0.9c0.8-0.6,1.3-1.6,1.3-2.8
		c0-0.7-0.2-1.4-0.7-2.1c-0.5-0.7-1-1.5-1.7-2.3c-0.7-0.8-1.4-1.6-2.2-2.4c-0.8-0.8-1.5-1.7-2.2-2.6c-0.7-0.9-1.3-1.8-1.7-2.8
		c-0.5-0.9-0.7-1.9-0.7-3c0-1.1,0.2-2.2,0.7-3c0.5-0.9,1.1-1.6,1.9-2.1c0.8-0.6,1.7-1,2.7-1.3c1-0.3,2-0.4,3.1-0.4
		c1.2,0,2.3,0.1,3.3,0.3c1,0.2,1.9,0.6,2.6,1c0.7,0.4,1.3,1,1.7,1.7c0.4,0.7,0.6,1.5,0.6,2.4c0,0.7-0.2,1.3-0.7,1.8
		c-0.5,0.5-1.1,0.8-1.9,0.8c-0.8,0-1.4-0.2-1.8-0.5c-0.4-0.3-0.6-0.8-0.6-1.4c0-0.4,0.1-0.7,0.3-0.9s0.4-0.4,0.6-0.5
		c0.2-0.1,0.5-0.3,0.6-0.4c0.2-0.1,0.3-0.2,0.3-0.4c0-0.5-0.3-0.9-0.8-1.2S308.8,525.6,308,525.6z"/>
	<path d="M340.1,539.3c0,0.6,0.1,1.2,0.3,1.9c0.2,0.7,0.4,1.4,0.8,2.1c0.3,0.7,0.7,1.4,1.2,2c0.5,0.6,1,1.2,1.7,1.7s1.3,0.9,2.1,1.2
		c0.8,0.3,1.6,0.4,2.5,0.4c0.6,0,1.2-0.1,1.8-0.2c0.5-0.1,1.1-0.3,1.5-0.6c0.5-0.3,0.9-0.6,1.4-0.9c0.4-0.3,0.9-0.7,1.3-1.1l0.7,0.7
		c-0.4,0.6-1,1.2-1.6,1.9c-0.7,0.7-1.4,1.3-2.4,1.9c-0.9,0.6-2,1.1-3.3,1.5c-1.2,0.4-2.7,0.6-4.2,0.6s-3.1-0.3-4.6-0.9
		s-2.8-1.4-4-2.6c-1.2-1.1-2.1-2.6-2.8-4.3c-0.7-1.7-1.1-3.7-1.1-6c0-1.7,0.2-3.2,0.6-4.6c0.4-1.4,1-2.6,1.7-3.7
		c0.7-1.1,1.6-2.1,2.5-2.9c1-0.8,2-1.5,3-2.1c1.1-0.6,2.1-1,3.2-1.3c1.1-0.3,2.2-0.4,3.2-0.4c1.3,0,2.5,0.1,3.5,0.4
		c1,0.3,1.8,0.7,2.5,1.2c0.7,0.5,1.2,1.1,1.5,1.7c0.3,0.6,0.5,1.3,0.5,2c0,0.9-0.2,1.6-0.7,2.3s-1.1,1.3-2,1.8L340.1,539.3z
		 M345.6,533.7c0.2-0.1,0.4-0.3,0.6-0.4c0.2-0.1,0.3-0.3,0.4-0.5c0.1-0.2,0.2-0.4,0.2-0.7c0-0.3,0.1-0.6,0.1-1.1
		c0-0.5-0.1-1-0.2-1.5c-0.1-0.6-0.3-1.1-0.5-1.6c-0.2-0.5-0.5-0.9-0.9-1.2c-0.4-0.3-0.8-0.5-1.3-0.5c-0.7,0-1.2,0.2-1.7,0.6
		c-0.5,0.4-0.8,0.9-1.1,1.5c-0.3,0.6-0.5,1.3-0.7,2.1c-0.2,0.8-0.3,1.6-0.4,2.4c-0.1,0.8-0.1,1.6-0.2,2.3c0,0.7,0,1.4,0,1.9
		L345.6,533.7z"/>
	<path d="M375,538.2c0-2.3-0.1-4.1-0.3-5.5c-0.2-1.4-0.5-2.4-0.8-3.1c-0.3-0.7-0.7-1.2-1.1-1.4c-0.4-0.2-0.8-0.3-1.3-0.3
		c-0.5,0-1,0.1-1.4,0.4c-0.4,0.3-0.8,0.6-1.1,1c-0.3,0.4-0.6,0.7-0.8,1.1c-0.2,0.4-0.4,0.6-0.5,0.8v18.3c0,0.2,0,0.5-0.1,0.9
		c-0.1,0.3-0.3,0.7-0.5,1c-0.3,0.3-0.7,0.6-1.3,0.8c-0.6,0.2-1.3,0.3-2.3,0.3c-1,0-1.7-0.1-2.3-0.3c-0.6-0.2-1-0.5-1.3-0.8
		c-0.3-0.3-0.5-0.6-0.5-1c-0.1-0.3-0.1-0.6-0.1-0.8v-21.1c0-0.5-0.1-1-0.4-1.4c-0.2-0.4-0.7-0.6-1.2-0.6c-0.3,0-0.6,0.1-0.8,0.2
		s-0.5,0.3-0.7,0.5l-0.6-0.7c0.4-0.3,0.9-0.7,1.4-1c0.5-0.3,1.1-0.6,1.7-0.9c0.6-0.3,1.2-0.5,1.9-0.6c0.7-0.2,1.4-0.2,2.2-0.2
		c1.2,0,2.1,0.2,2.8,0.6c0.7,0.4,1.1,0.9,1.4,1.4c0.3,0.5,0.5,1.1,0.6,1.7c0.1,0.6,0.1,1.1,0.1,1.5c0.7-1,1.4-1.8,2.3-2.6
		c0.3-0.3,0.7-0.6,1.2-1c0.4-0.3,0.9-0.6,1.4-0.8c0.5-0.2,1-0.4,1.5-0.6c0.5-0.1,1.1-0.2,1.7-0.2c1.2,0,2.3,0.2,3.3,0.7
		c1,0.5,1.8,1.3,2.4,2.4c0.7,1.1,1.2,2.6,1.5,4.4c0.3,1.8,0.5,4.1,0.5,6.8c0,2.6-0.2,4.9-0.7,6.9c-0.5,2-1.1,3.6-1.9,5
		s-1.6,2.5-2.6,3.3c-1,0.9-1.9,1.5-2.9,2s-1.9,0.8-2.8,1s-1.7,0.3-2.3,0.3l-0.3-1.1c0.5-0.1,1.1-0.3,1.5-0.6s0.9-0.7,1.3-1.2
		c0.4-0.5,0.7-1.2,1-2c0.3-0.8,0.5-1.8,0.8-3c0.2-1.2,0.4-2.7,0.5-4.3C375,542.4,375,540.4,375,538.2z"/>
	<path d="M402.5,511.2c-0.5,0-1,0.1-1.4,0.3c-0.5,0.2-0.9,0.6-1.2,1.1c-0.3,0.5-0.6,1.1-0.8,1.8c-0.2,0.7-0.3,1.7-0.3,2.7v6.7h6v2
		h-6v21.5c0,2.5-0.3,4.8-1,6.9c-0.6,2.1-1.6,3.9-2.9,5.4c-1.3,1.5-3,2.7-4.9,3.6c-2,0.9-4.3,1.3-6.9,1.3c-0.9,0-1.8-0.1-2.7-0.2
		c-0.9-0.2-1.6-0.4-2.3-0.6s-1.2-0.6-1.6-1c-0.4-0.4-0.6-0.8-0.6-1.2c0-0.3,0-0.7,0.1-1c0.1-0.3,0.2-0.6,0.4-0.9
		c0.2-0.3,0.4-0.5,0.7-0.7c0.3-0.2,0.6-0.3,0.9-0.3c0.2,0,0.4,0.1,0.5,0.3c0.2,0.2,0.3,0.4,0.5,0.7c0.2,0.3,0.4,0.6,0.6,1
		c0.2,0.4,0.5,0.7,0.8,1c0.3,0.3,0.7,0.5,1.2,0.7c0.5,0.2,1.1,0.3,1.8,0.3c0.9,0,1.8-0.2,2.5-0.6c0.7-0.4,1.3-0.9,1.8-1.5
		c0.5-0.7,0.9-1.4,1.3-2.3c0.3-0.9,0.6-1.9,0.8-2.9c0.2-1,0.3-2.1,0.4-3.2s0.1-2.2,0.1-3.3v-22.9h-5v-2h5v-3.2c0-1.6,0.2-3,0.6-4.2
		c0.4-1.2,0.9-2.2,1.6-3c0.6-0.8,1.4-1.5,2.2-2.1c0.8-0.5,1.7-0.9,2.5-1.3c0.8-0.3,1.7-0.5,2.5-0.6c0.8-0.1,1.5-0.2,2.1-0.2
		c1.3,0,2.4,0.1,3.4,0.3c1,0.2,1.8,0.4,2.5,0.8c0.7,0.3,1.2,0.7,1.5,1.1c0.3,0.4,0.5,0.8,0.5,1.3c0,0.3-0.1,0.7-0.2,1
		c-0.1,0.3-0.2,0.6-0.4,0.9c-0.2,0.3-0.4,0.5-0.7,0.7c-0.3,0.2-0.6,0.3-0.9,0.3c-0.2,0-0.4-0.1-0.5-0.3s-0.3-0.5-0.5-0.8
		c-0.2-0.3-0.4-0.7-0.6-1.1s-0.5-0.7-0.8-1.1c-0.3-0.3-0.7-0.6-1.1-0.8S403.1,511.2,402.5,511.2z"/>
	<path d="M414.7,525.7c-0.6,0-1.2,0.1-1.7,0.2c-0.5,0.1-1,0.3-1.4,0.5s-0.7,0.5-0.9,0.7c-0.2,0.3-0.3,0.5-0.3,0.8
		c0,0.3,0.1,0.5,0.4,0.6c0.3,0.1,0.6,0.3,0.9,0.4c0.3,0.2,0.7,0.4,0.9,0.7c0.3,0.3,0.4,0.7,0.4,1.3c0,0.4-0.1,0.7-0.2,1.1
		c-0.2,0.3-0.4,0.6-0.6,0.8c-0.3,0.2-0.6,0.4-0.9,0.6s-0.7,0.2-1.1,0.2c-1,0-1.8-0.3-2.5-1c-0.6-0.7-0.9-1.6-0.9-2.8
		c0-1.1,0.3-2.1,0.9-2.9c0.6-0.8,1.3-1.4,2.3-2c0.9-0.5,2-0.9,3.2-1.1c1.2-0.2,2.4-0.4,3.6-0.4c1.4,0,2.8,0.2,4.1,0.5
		c1.3,0.3,2.4,0.8,3.4,1.5c1,0.7,1.8,1.5,2.4,2.6c0.6,1,0.9,2.3,0.9,3.8v15.4c0,0.2,0,0.3,0,0.5c0,0.2,0.1,0.4,0.1,0.5
		c0.1,0.2,0.2,0.3,0.3,0.4c0.1,0.1,0.4,0.2,0.6,0.2c0.3,0,0.6-0.1,0.9-0.4c0.3-0.2,0.5-0.5,0.8-0.8l0.7,0.6c-0.3,0.4-0.6,0.8-1,1.3
		c-0.4,0.5-0.8,0.9-1.4,1.3c-0.5,0.4-1.2,0.7-1.9,1c-0.7,0.3-1.6,0.4-2.5,0.4c-1.1,0-2.2-0.3-3.1-1c-0.9-0.7-1.5-1.7-1.8-3.2
		c-0.6,0.8-1.2,1.4-1.8,2c-0.6,0.5-1.3,1-1.9,1.3s-1.3,0.6-2,0.7c-0.7,0.1-1.3,0.2-2,0.2c-0.9,0-1.7-0.1-2.5-0.4s-1.6-0.7-2.2-1.3
		c-0.6-0.6-1.2-1.4-1.6-2.3c-0.4-0.9-0.6-2.1-0.6-3.5c0-1.7,0.3-3,1-4.1c0.7-1.1,1.5-1.9,2.6-2.7c1.1-0.7,2.3-1.3,3.6-1.8
		c1.4-0.5,2.7-1,4.2-1.6c1.1-0.4,1.8-1,2.3-1.9c0.5-0.8,0.7-1.7,0.7-2.6c0-1.3-0.4-2.4-1.2-3.2C417.1,526.1,416,525.7,414.7,525.7z
		 M419,537.7c0-0.5-0.1-0.8-0.4-1c-0.3-0.2-0.7-0.4-1.1-0.4c-0.6,0-1.2,0.1-1.8,0.4c-0.6,0.3-1.1,0.7-1.5,1.3
		c-0.4,0.6-0.8,1.3-1,2.1c-0.3,0.8-0.4,1.8-0.4,2.9c0,1.1,0.1,1.9,0.2,2.6c0.2,0.7,0.4,1.2,0.6,1.7c0.3,0.4,0.6,0.7,0.9,0.9
		c0.3,0.2,0.7,0.2,1.1,0.2c0.5,0,0.9-0.1,1.3-0.4c0.4-0.2,0.8-0.6,1.1-0.9c0.3-0.4,0.6-0.8,0.7-1.3c0.2-0.5,0.3-0.9,0.3-1.4V537.7z"
		/>
	<path d="M450.7,538.2c0-2.3-0.1-4.1-0.3-5.5c-0.2-1.4-0.5-2.4-0.8-3.1c-0.3-0.7-0.7-1.2-1.1-1.4c-0.4-0.2-0.8-0.3-1.3-0.3
		c-0.5,0-1,0.1-1.4,0.4c-0.4,0.3-0.8,0.6-1.1,1c-0.3,0.4-0.6,0.7-0.8,1.1c-0.2,0.4-0.4,0.6-0.5,0.8v18.3c0,0.2,0,0.5-0.1,0.9
		c-0.1,0.3-0.3,0.7-0.5,1c-0.3,0.3-0.7,0.6-1.3,0.8c-0.6,0.2-1.3,0.3-2.3,0.3c-1,0-1.7-0.1-2.3-0.3c-0.6-0.2-1-0.5-1.3-0.8
		c-0.3-0.3-0.5-0.6-0.5-1c-0.1-0.3-0.1-0.6-0.1-0.8v-21.1c0-0.5-0.1-1-0.4-1.4c-0.2-0.4-0.7-0.6-1.2-0.6c-0.3,0-0.6,0.1-0.8,0.2
		s-0.5,0.3-0.7,0.5l-0.6-0.7c0.4-0.3,0.9-0.7,1.4-1c0.5-0.3,1.1-0.6,1.7-0.9c0.6-0.3,1.2-0.5,1.9-0.6c0.7-0.2,1.4-0.2,2.2-0.2
		c1.2,0,2.1,0.2,2.8,0.6c0.7,0.4,1.1,0.9,1.4,1.4c0.3,0.5,0.5,1.1,0.6,1.7c0.1,0.6,0.1,1.1,0.1,1.5c0.7-1,1.4-1.8,2.3-2.6
		c0.3-0.3,0.7-0.6,1.2-1c0.4-0.3,0.9-0.6,1.4-0.8c0.5-0.2,1-0.4,1.5-0.6c0.5-0.1,1.1-0.2,1.7-0.2c1.2,0,2.3,0.2,3.3,0.7
		c1,0.5,1.8,1.3,2.4,2.4c0.7,1.1,1.2,2.6,1.5,4.4c0.3,1.8,0.5,4.1,0.5,6.8c0,2.6-0.2,4.9-0.7,6.9c-0.5,2-1.1,3.6-1.9,5
		s-1.6,2.5-2.6,3.3c-1,0.9-1.9,1.5-2.9,2s-1.9,0.8-2.8,1s-1.7,0.3-2.3,0.3l-0.3-1.1c0.5-0.1,1.1-0.3,1.5-0.6s0.9-0.7,1.3-1.2
		c0.4-0.5,0.7-1.2,1-2c0.3-0.8,0.5-1.8,0.8-3c0.2-1.2,0.4-2.7,0.5-4.3C450.6,542.4,450.7,540.4,450.7,538.2z"/>
	<path d="M473.6,525.8V546c0,1,0.2,1.6,0.5,2c0.4,0.4,0.9,0.6,1.5,0.6c0.5,0,0.9-0.1,1.3-0.4s0.7-0.6,1-0.9c0.3-0.4,0.6-0.8,0.8-1.3
		l0.8,0.4c-0.3,0.6-0.6,1.2-1,1.9c-0.4,0.7-0.9,1.3-1.5,1.9c-0.6,0.6-1.4,1.1-2.3,1.5c-0.9,0.4-2.1,0.6-3.5,0.6
		c-0.8,0-1.6-0.1-2.3-0.4s-1.4-0.6-2-1.1c-0.6-0.5-1-1.1-1.4-1.9c-0.3-0.8-0.5-1.7-0.5-2.8v-20.3h-3.1v-2c0.5,0,1.2-0.1,2.1-0.4
		c0.9-0.3,1.8-0.7,2.8-1.3c1-0.6,1.8-1.4,2.7-2.5s1.4-2.3,1.8-3.9h2.2v8.1h4.5c1.5,0,2.2-0.2,2.2-0.7c0-0.2-0.1-0.3-0.3-0.4
		c-0.2-0.1-0.4-0.1-0.6-0.2c-0.2-0.1-0.4-0.2-0.6-0.4c-0.2-0.2-0.3-0.5-0.3-0.9c0-0.5,0.2-0.9,0.5-1.2c0.3-0.3,0.7-0.4,1.2-0.4
		c0.3,0,0.6,0.1,0.9,0.2s0.5,0.3,0.6,0.5c0.2,0.2,0.3,0.5,0.4,0.8c0.1,0.3,0.1,0.6,0.1,0.9c0,1.2-0.3,2.1-1,2.8
		c-0.7,0.7-1.8,1.1-3.3,1.1H473.6z"/>
	<path d="M492.4,525.6c-0.4,0-0.8,0.1-1.2,0.2c-0.4,0.1-0.7,0.3-1,0.5c-0.3,0.2-0.5,0.6-0.7,0.9c-0.2,0.4-0.2,0.8-0.2,1.3
		c0,0.7,0.3,1.4,0.8,2.1c0.5,0.7,1.2,1.4,1.9,2.2c0.8,0.8,1.6,1.5,2.5,2.4c0.9,0.8,1.7,1.7,2.5,2.6c0.8,0.9,1.4,1.9,1.9,2.9
		c0.5,1,0.8,2.1,0.8,3.3c0,1.3-0.2,2.5-0.7,3.5c-0.4,1-1.1,1.9-1.9,2.6c-0.8,0.7-1.8,1.3-3,1.6s-2.5,0.6-3.9,0.6
		c-1.3,0-2.4-0.2-3.4-0.5c-1-0.4-1.9-0.8-2.7-1.3s-1.5-1.1-2-1.7c-0.6-0.6-1-1.1-1.3-1.6l1-0.7c0.2,0.3,0.5,0.6,0.9,0.9
		c0.4,0.3,0.8,0.6,1.2,0.9c0.4,0.3,0.9,0.5,1.4,0.7c0.5,0.2,1,0.3,1.6,0.3c1.3,0,2.4-0.3,3.2-0.9c0.8-0.6,1.3-1.6,1.3-2.8
		c0-0.7-0.2-1.4-0.7-2.1c-0.5-0.7-1-1.5-1.7-2.3c-0.7-0.8-1.4-1.6-2.2-2.4c-0.8-0.8-1.5-1.7-2.2-2.6c-0.7-0.9-1.3-1.8-1.7-2.8
		c-0.5-0.9-0.7-1.9-0.7-3c0-1.1,0.2-2.2,0.7-3c0.5-0.9,1.1-1.6,1.9-2.1c0.8-0.6,1.7-1,2.7-1.3c1-0.3,2-0.4,3.1-0.4
		c1.2,0,2.3,0.1,3.3,0.3c1,0.2,1.9,0.6,2.6,1c0.7,0.4,1.3,1,1.7,1.7c0.4,0.7,0.6,1.5,0.6,2.4c0,0.7-0.2,1.3-0.7,1.8
		c-0.5,0.5-1.1,0.8-1.9,0.8c-0.8,0-1.4-0.2-1.8-0.5c-0.4-0.3-0.6-0.8-0.6-1.4c0-0.4,0.1-0.7,0.3-0.9s0.4-0.4,0.6-0.5
		c0.2-0.1,0.5-0.3,0.6-0.4c0.2-0.1,0.3-0.2,0.3-0.4c0-0.5-0.3-0.9-0.8-1.2S493.2,525.6,492.4,525.6z"/>
</g>
<g id="_x36_8eRUl.tif">
	<g>
		<path d="M235.7,253c-9.3-17.4-18.3-35-29.2-51.5c-6.4-9.7-12.9-19.4-19.6-28.9c-2.9-4.1-6.3-7.8-10.3-10.9c-3-2.3-6.1-2.9-9.5-1.2
			c-1.7,0.8-3.5,1.5-5.2,2.4c-3,1.5-6,1.4-8.8-0.5c-1.6-1.1-3.3-2.1-4.8-3.4c-11.1-9.7-20.7-20.8-28.5-33.4
			c-3.1-5-4.4-10.5-4.5-16.3c-0.2-7.6,0-15.2,1.9-22.6c0.5-1.7,1.1-3.4,2-5c1.8-3.4,4.6-4.7,8.1-3.4c3,1.1,6,2.6,8.6,4.4
			c8,5.5,14.6,12.7,21,20c18.3,20.9,34.3,43.6,49,67.1c10.3,16.6,21.1,32.9,30.4,50.1c3,5.5,5.9,11.1,8.9,16.8
			c0.2-0.3,0.4-0.6,0.6-0.9c8.2-16.9,14.3-34.4,17.6-52.9c1.9-10.8,3-21.7,3.5-32.7c0.4-8.3,0.4-16.7,0.7-25.1c0-1.3-0.4-2-1.5-2.6
			c-2.9-1.6-5.8-3.3-8.7-5.1c-0.4-0.3-0.9-0.9-0.9-1.4c0.1-13.8,2.2-27.2,7.8-39.9c0.6-1.3,1.1-1.9,2.5-1.2c0.2,0.1,0.4,0.1,0.6,0.2
			c1.6,0.2,2.2,0.9,2.6,2.6c1.1,5.5,4.7,9.2,9.5,11.7c7.2,3.7,14.5,7.2,21.8,10.7c0.3,0.2,0.6,0.3,1,0.5
			c-3.1,11.7-6.2,23.3-9.4,35.1c-3.8-1.9-7.6-3.7-11.5-5.6c0,1,0,1.7,0,2.4c0,9.1,0.3,18.3-0.1,27.4c-1,21.6-6,42.4-14.1,62.4
			c-4,9.9-8.8,19.4-14.2,28.6c-0.6,1.1-0.6,1.8-0.1,2.9c2.6,5.1,5.2,10.2,7.6,15.3c4.4,9.5,6.4,19.5,6.5,30
			c0.1,7.6-0.4,15.1-1.8,22.6c-0.2,1.1-0.6,1.5-1.7,1.8c-13.6,3-27.3,5.2-41.2,6.8c-15.4,1.8-30.8,2.8-46.3,2.8
			c-0.4,0-0.7,0-1.2-0.1c0-2.2-0.1-4.4,0-6.6c0.7-8.8,1.9-17.5,4.4-26c0.2-0.7,0.8-1.4,1.5-1.8c10.1-5.6,19.7-11.9,28.6-19.1
			c9.5-7.7,18.1-16.4,25.9-25.9C235.4,253.5,235.5,253.3,235.7,253z M242.4,267c-11.6,13.7-25.4,24.7-40.3,34.5
			c0.4,0.1,0.4,0.2,0.5,0.2c10.9,0,21.8,0,32.6-1.4c3.9-0.5,7.8-1.3,11.4-3.1c3.7-1.8,4.9-3.9,4.6-8c-0.1-1.1-0.3-2.3-0.5-3.4
			C249.2,279.1,245.5,273.3,242.4,267z"/>
		<path d="M336.2,86.5c1.1,4.1,2.4,8.2,3.4,12.3c3.2,12.8,5.5,25.7,6.6,38.8c1.2,15.8,2.1,31.6,2.8,47.4c0.8,17.5,0.7,35,1.8,52.4
			c0.8,13.8,2.7,27.5,7.5,40.6c1.6,4.2,4,7.9,7.5,10.8c2.3,1.9,4.9,2.8,7.8,2.7c5.1-0.1,10.2-0.1,15.3-0.1c30.9,0,61.8,0.1,92.7,0.1
			c0.7,0,1.4,0,2.3,0c0-1.8,0-3.3,0-4.9c-0.3-8.8-1.1-17.5-3.7-25.9c-2-6.3-5.6-11.7-9.7-16.7c-3.1-3.8-6.4-7.4-9.5-11.2
			c-0.3-0.4-0.6-1.3-0.4-1.7c4.8-10.1,9.7-20.3,14.5-30.4c0.1-0.1,0.2-0.2,0.4-0.5c0.8,1,1.6,1.9,2.3,2.9c3.2,4.5,6.4,9,9.5,13.5
			c5.5,8.1,7.9,17.2,9.1,26.8c1.4,11.2,1.8,22.5,1.8,33.8c0,15.5,0,30.9,0,46.4c0,0.5,0,1,0,1.8c-0.8,0-1.5,0-2.2,0
			c-26.5,0-52.9,0-79.4,0c-9.3,0-18.7,0.1-28,0.1c-5.7,0-11.3-0.1-17-0.2c-8.7-0.2-15.4-4.2-20.4-11.2c-4.5-6.4-7-13.6-8.9-21.1
			c-2.5-10-3.8-20.1-5-30.3c-2.2-18.4-2.7-36.8-3.8-55.2c-0.7-11.9-1.5-23.8-2.5-35.6c-0.8-9.7-2.3-19.2-5.8-28.4
			c-2.5-6.6-6.3-12.4-11.2-17.4c-0.6-0.7-1.5-1.1-2.2-1.7c8.2-12.9,16.1-25.4,24-37.9C335.9,86.5,336,86.5,336.2,86.5z"/>
		<path class="st2" d="M497.1,346.5c-5.1,9.5-10.2,18.7-15.2,28.1c-10.6-5.6-21.1-11.2-31.7-16.8c4.9-9.3,9.7-18.5,14.7-28
			C475.6,335.4,486.3,340.9,497.1,346.5z"/>
		<path class="st2" d="M420,347.7c10.7,5.5,21.3,10.9,32.1,16.4c-5,9.4-9.9,18.8-14.9,28.4c-10.6-5.5-21.1-10.9-31.7-16.4
			C410.4,366.6,415.2,357.3,420,347.7z"/>
	</g>
</g>
<path class="st2" d="M117.8,74.2c0,0-98.1-63.8-114.5-15C-8.3,94,49.1,130.4,49.1,130.4s-25.3,40.1,38.4,68.7
	c2.5,35.1,34.1,41.9,54.8,37.6c7.6,12.7,58.9,31.6,64.1-31.3l-24.8-35.1c0,0-6.5-11-17.8-4.4c-11.3,6.6-36.7-22.5-47-40.4
	C105.6,105.7,117.8,74.2,117.8,74.2z"/>
<path class="st0" d="M298.1,123.7c0,0,6.8,14.5,9.6,15.7c-10-1.6-13.2-2.9-13.2-2.9"/>
<polygon class="st1" points="500.5,129.6 375.6,19.4 309.9,123.1 301,117.5 373.3,3.2 500.5,115.5 "/>
<circle class="st3" cx="403.4" cy="143.8" r="25.7"/>
<circle class="st4" cx="409.4" cy="143.8" r="25.7"/>
<path class="st3" d="M431.3,288.9v-68.2c0-7-5.7-12.7-12.7-12.7h-21.7c-7,0-12.7,5.7-12.7,12.7v68.2H431.3z"/>
<path class="st4" d="M437.3,288.9v-68.2c0-7-5.7-12.7-12.7-12.7h-21.7c-7,0-12.7,5.7-12.7,12.7"/>
<line class="st5" x1="405.8" y1="124.3" x2="405.8" y2="163.2"/>
<line class="st5" x1="385.9" y1="143.3" x2="429.8" y2="143.3"/>
<circle class="st6" cx="426.2" cy="251.6" r="3.9"/>
</svg>
